<svg xmlns="http://www.w3.org/2000/svg"  viewBox="0 0 30 30" width="50px" height="50px" baseProfile="basic"><path fill="#bae0bd" d="M15,15v2.7l-2.025-0.675L3.633,7.75H3.625C2.286,9.846,1.5,12.329,1.5,15 c0,7.268,5.75,13.179,12.947,13.472L20.4,17.7L15,15z"/><path fill="#5e9c76" d="M14.734,28.983l-0.309-0.012C6.897,28.666,1,22.529,1,15c0-2.661,0.762-5.262,2.204-7.52l0.147-0.23 h0.48l0.154,0.146l9.259,9.192l1.256,0.419v-2.815l6.59,3.295L14.734,28.983z M3.726,8.547C2.595,10.517,2,12.734,2,15 c0,6.888,5.316,12.521,12.16,12.956l5.551-10.042L15.5,15.809v2.585l-2.794-0.931L3.726,8.547z"/><path fill="#f5ce85" d="M15,1.5V15l5.4,2.7l-5.969,10.8l0.249,0c7.324,0,13.559-5.7,13.812-13.02 C28.758,7.8,22.48,1.591,15,1.5z"/><path fill="#ba9b48" d="M14.68,29h-1.096l6.127-11.086l-5.21-2.605V0.994L15.006,1c3.797,0.046,7.489,1.659,10.13,4.427 c2.616,2.741,3.986,6.318,3.855,10.071C28.734,22.943,22.313,29,14.68,29z M15.5,14.691l5.589,2.795l-5.803,10.5 c6.832-0.31,12.474-5.809,12.706-12.523c0.121-3.481-1.151-6.801-3.58-9.346c-2.338-2.45-5.563-3.929-8.913-4.102V14.691z"/><path fill="#f78f8f" d="M27.042,9H15l0,8.7l-2.025-0.675L3.62,7.75C6.009,3.991,10.214,1.5,15,1.5 C20.265,1.5,24.821,4.599,27.042,9z"/><path fill="#c74343" d="M15.5,18.394l-2.794-0.931L2.982,7.821l0.216-0.34C5.777,3.423,10.189,1,15,1 c5.284,0,10.069,2.979,12.488,7.774L27.854,9.5H15.5V18.394z M13.244,16.588l1.256,0.419V8.5h11.702C23.853,4.47,19.632,2,15,2 C10.667,2,6.683,4.116,4.262,7.683L13.244,16.588z"/><g><path fill="#fff" d="M21.5,15c0,3.589-2.911,6.5-6.5,6.5S8.5,18.589,8.5,15s2.911-6.5,6.5-6.5S21.5,11.411,21.5,15z"/><path fill="#788b9c" d="M15,22c-3.86,0-7-3.141-7-7s3.14-7,7-7s7,3.141,7,7S18.86,22,15,22z M15,9c-3.309,0-6,2.691-6,6 s2.691,6,6,6s6-2.691,6-6S18.309,9,15,9z"/></g><g><path fill="#8bb7f0" d="M18.5,15c0,1.933-1.566,3.5-3.5,3.5s-3.5-1.566-3.5-3.5s1.566-3.5,3.5-3.5S18.5,13.067,18.5,15z"/><path fill="#4e7ab5" d="M15,19c-2.206,0-4-1.794-4-4s1.794-4,4-4s4,1.794,4,4S17.206,19,15,19z M15,12c-1.654,0-3,1.346-3,3 s1.346,3,3,3s3-1.346,3-3S16.654,12,15,12z"/></g></svg>