<svg xmlns="http://www.w3.org/2000/svg" xmlns:xlink="http://www.w3.org/1999/xlink" viewBox="0 0 64 64" width="64px" height="64px"><linearGradient id="FLBMW1hLvSGUzMjAbjtzAa" x1="32" x2="32" y1="6" y2="58" gradientUnits="userSpaceOnUse"><stop offset="0" stop-color="#6dc7ff"/><stop offset="1" stop-color="#e6abff"/></linearGradient><path fill="url(#FLBMW1hLvSGUzMjAbjtzAa)" d="M36.16,6h-8.32	c-11.488,0-20.8,9.313-20.8,20.8v10.4c0,11.487,9.312,20.8,20.8,20.8h8.32c11.488,0,20.8-9.313,20.8-20.8V26.8	C56.96,15.313,47.648,6,36.16,6z M31.48,45.52c-7.754,0-14.04-6.286-14.04-14.04s6.286-14.04,14.04-14.04s14.04,6.286,14.04,14.04	S39.234,45.52,31.48,45.52z"/><defs><rect id="FLBMW1hLvSGUzMjAbjtzAb" width="325" height="139.625" x="441" y="-109.516"/></defs><clipPath id="FLBMW1hLvSGUzMjAbjtzAc"><use overflow="visible" xlink:href="#FLBMW1hLvSGUzMjAbjtzAb"/></clipPath><g opacity=".11"><defs><rect id="FLBMW1hLvSGUzMjAbjtzAd" width="73.381" height="60.502" x="70.309" y="181.749" opacity=".11"/></defs><clipPath id="FLBMW1hLvSGUzMjAbjtzAe"><use overflow="visible" xlink:href="#FLBMW1hLvSGUzMjAbjtzAd"/></clipPath></g><defs><rect id="FLBMW1hLvSGUzMjAbjtzAf" width="71.143" height="62.25" x="85.429" y="63.875"/></defs><clipPath id="FLBMW1hLvSGUzMjAbjtzAg"><use overflow="visible" xlink:href="#FLBMW1hLvSGUzMjAbjtzAf"/></clipPath><linearGradient id="FLBMW1hLvSGUzMjAbjtzAh" x1="32" x2="32" y1="6" y2="58" gradientUnits="userSpaceOnUse"><stop offset="0" stop-color="#1a6dff"/><stop offset="1" stop-color="#c822ff"/></linearGradient><path fill="url(#FLBMW1hLvSGUzMjAbjtzAh)" d="M36,58h-8C16.421,58,7,48.579,7,37V27	C7,15.421,16.421,6,28,6h8c11.579,0,21,9.421,21,21v10C57,48.579,47.579,58,36,58z M28,8C17.523,8,9,16.523,9,27v10	c0,10.477,8.523,19,19,19h8c10.477,0,19-8.523,19-19V27c0-10.477-8.523-19-19-19H28z M46.814,29.76C45.727,22.55,39.508,17,32,17	c-3.964,0-7.563,1.556-10.248,4.076c-4.151,0.307-7.531,1.227-8.337,3.722c-0.779,2.413,0.698,5.471,3.641,8.318	C17.632,40.867,24.105,47,32,47c4.767,0,9.013-2.242,11.762-5.72C46.997,40.599,49.311,39.134,50,37	C50.731,34.736,49.361,32.236,46.814,29.76z M44.738,29.413c0.364,1.796,0.334,3.534,0,5.163c-0.181,0.881-0.966,1.521-1.864,1.549	c-12.85,0.398-18.774-4.066-21.666-7.234c-0.886-0.971-1.033-2.413-0.359-3.541c2.508-4.197,7.306-6.872,12.663-6.263	C39.042,19.714,43.631,23.958,44.738,29.413z M32,45c-6.099,0-11.216-4.228-12.611-9.902C22.01,37.063,25.31,38.808,29,40	c4.149,1.34,8.21,1.855,11.658,1.67C38.356,43.733,35.327,45,32,45z"/></svg>